<mxfile host="app.diagrams.net" modified="2024-05-17T15:40:34.225Z" agent="Mozilla/5.0 (Macintosh; Intel Mac OS X 10_15_7) AppleWebKit/537.36 (KHTML, like Gecko) Chrome/124.0.0.0 Safari/537.36" etag="gSch76Nob9xDEE86qDDR" version="24.4.4" type="github">
  <diagram name="Page-1" id="c4acf3e9-155e-7222-9cf6-157b1a14988f">
    <mxGraphModel dx="948" dy="581" grid="1" gridSize="10" guides="1" tooltips="1" connect="1" arrows="1" fold="1" page="1" pageScale="1" pageWidth="850" pageHeight="1100" background="none" math="0" shadow="0">
      <root>
        <mxCell id="0" />
        <mxCell id="1" parent="0" />
        <mxCell id="7Wdi4PODXlV2XMZjvd2i-13" style="rounded=0;orthogonalLoop=1;jettySize=auto;html=1;exitX=0;exitY=0.3333333333333333;exitDx=0;exitDy=0;exitPerimeter=0;entryX=0.971;entryY=0.357;entryDx=0;entryDy=0;entryPerimeter=0;" edge="1" parent="1" source="7Wdi4PODXlV2XMZjvd2i-1" target="7Wdi4PODXlV2XMZjvd2i-10">
          <mxGeometry relative="1" as="geometry" />
        </mxCell>
        <mxCell id="7Wdi4PODXlV2XMZjvd2i-36" style="rounded=0;orthogonalLoop=1;jettySize=auto;html=1;exitX=0;exitY=0.3333333333333333;exitDx=0;exitDy=0;exitPerimeter=0;entryX=1;entryY=0.5;entryDx=0;entryDy=0;" edge="1" parent="1" source="7Wdi4PODXlV2XMZjvd2i-1" target="7Wdi4PODXlV2XMZjvd2i-30">
          <mxGeometry relative="1" as="geometry" />
        </mxCell>
        <mxCell id="7Wdi4PODXlV2XMZjvd2i-41" style="rounded=0;orthogonalLoop=1;jettySize=auto;html=1;entryX=1;entryY=0.5;entryDx=0;entryDy=0;exitX=0;exitY=0.3333333333333333;exitDx=0;exitDy=0;exitPerimeter=0;" edge="1" parent="1" source="7Wdi4PODXlV2XMZjvd2i-1" target="7Wdi4PODXlV2XMZjvd2i-31">
          <mxGeometry relative="1" as="geometry">
            <mxPoint x="700" y="270" as="sourcePoint" />
          </mxGeometry>
        </mxCell>
        <mxCell id="7Wdi4PODXlV2XMZjvd2i-1" value="Besökare&lt;div&gt;&lt;br&gt;&lt;/div&gt;" style="shape=umlActor;verticalLabelPosition=bottom;verticalAlign=top;html=1;" vertex="1" parent="1">
          <mxGeometry x="710" y="120" width="30" height="60" as="geometry" />
        </mxCell>
        <mxCell id="7Wdi4PODXlV2XMZjvd2i-14" style="rounded=0;orthogonalLoop=1;jettySize=auto;html=1;exitX=1;exitY=0.3333333333333333;exitDx=0;exitDy=0;exitPerimeter=0;entryX=0;entryY=0.5;entryDx=0;entryDy=0;" edge="1" parent="1" source="7Wdi4PODXlV2XMZjvd2i-2" target="7Wdi4PODXlV2XMZjvd2i-11">
          <mxGeometry relative="1" as="geometry">
            <mxPoint x="315" y="230" as="targetPoint" />
          </mxGeometry>
        </mxCell>
        <mxCell id="7Wdi4PODXlV2XMZjvd2i-37" style="rounded=0;orthogonalLoop=1;jettySize=auto;html=1;exitX=1;exitY=0.3333333333333333;exitDx=0;exitDy=0;exitPerimeter=0;entryX=0;entryY=0.5;entryDx=0;entryDy=0;" edge="1" parent="1" source="7Wdi4PODXlV2XMZjvd2i-2" target="7Wdi4PODXlV2XMZjvd2i-31">
          <mxGeometry relative="1" as="geometry" />
        </mxCell>
        <mxCell id="7Wdi4PODXlV2XMZjvd2i-38" style="rounded=0;orthogonalLoop=1;jettySize=auto;html=1;entryX=0;entryY=0.5;entryDx=0;entryDy=0;" edge="1" parent="1" target="7Wdi4PODXlV2XMZjvd2i-32">
          <mxGeometry relative="1" as="geometry">
            <mxPoint x="90" y="300" as="sourcePoint" />
          </mxGeometry>
        </mxCell>
        <mxCell id="7Wdi4PODXlV2XMZjvd2i-2" value="Djurskötare&lt;div&gt;&lt;br&gt;&lt;/div&gt;" style="shape=umlActor;verticalLabelPosition=bottom;verticalAlign=top;html=1;" vertex="1" parent="1">
          <mxGeometry x="60" y="280" width="30" height="60" as="geometry" />
        </mxCell>
        <mxCell id="7Wdi4PODXlV2XMZjvd2i-15" style="rounded=0;orthogonalLoop=1;jettySize=auto;html=1;exitX=1;exitY=0.3333333333333333;exitDx=0;exitDy=0;exitPerimeter=0;entryX=0;entryY=0.5;entryDx=0;entryDy=0;" edge="1" parent="1" source="7Wdi4PODXlV2XMZjvd2i-3" target="7Wdi4PODXlV2XMZjvd2i-12">
          <mxGeometry relative="1" as="geometry" />
        </mxCell>
        <mxCell id="7Wdi4PODXlV2XMZjvd2i-39" style="rounded=0;orthogonalLoop=1;jettySize=auto;html=1;exitX=1;exitY=0.3333333333333333;exitDx=0;exitDy=0;exitPerimeter=0;entryX=0;entryY=0.5;entryDx=0;entryDy=0;" edge="1" parent="1" source="7Wdi4PODXlV2XMZjvd2i-3" target="7Wdi4PODXlV2XMZjvd2i-33">
          <mxGeometry relative="1" as="geometry" />
        </mxCell>
        <mxCell id="7Wdi4PODXlV2XMZjvd2i-40" style="rounded=0;orthogonalLoop=1;jettySize=auto;html=1;exitX=1;exitY=0.3333333333333333;exitDx=0;exitDy=0;exitPerimeter=0;entryX=0;entryY=0.5;entryDx=0;entryDy=0;" edge="1" parent="1" source="7Wdi4PODXlV2XMZjvd2i-3" target="7Wdi4PODXlV2XMZjvd2i-34">
          <mxGeometry relative="1" as="geometry" />
        </mxCell>
        <mxCell id="7Wdi4PODXlV2XMZjvd2i-3" value="Administratör&lt;div&gt;&lt;br&gt;&lt;/div&gt;" style="shape=umlActor;verticalLabelPosition=bottom;verticalAlign=top;html=1;" vertex="1" parent="1">
          <mxGeometry x="60" y="440" width="30" height="60" as="geometry" />
        </mxCell>
        <mxCell id="7Wdi4PODXlV2XMZjvd2i-28" value="" style="swimlane;startSize=0;" vertex="1" parent="1">
          <mxGeometry x="280" y="80" width="240" height="560" as="geometry">
            <mxRectangle x="240" y="80" width="50" height="40" as="alternateBounds" />
          </mxGeometry>
        </mxCell>
        <mxCell id="7Wdi4PODXlV2XMZjvd2i-30" value="Titta på djuren" style="ellipse;whiteSpace=wrap;html=1;" vertex="1" parent="7Wdi4PODXlV2XMZjvd2i-28">
          <mxGeometry x="50" y="70" width="140" height="70" as="geometry" />
        </mxCell>
        <mxCell id="7Wdi4PODXlV2XMZjvd2i-31" value="Mata djuren" style="ellipse;whiteSpace=wrap;html=1;" vertex="1" parent="7Wdi4PODXlV2XMZjvd2i-28">
          <mxGeometry x="50" y="210" width="140" height="70" as="geometry" />
        </mxCell>
        <mxCell id="7Wdi4PODXlV2XMZjvd2i-32" value="Hantera djuren" style="ellipse;whiteSpace=wrap;html=1;" vertex="1" parent="7Wdi4PODXlV2XMZjvd2i-28">
          <mxGeometry x="50" y="280" width="140" height="70" as="geometry" />
        </mxCell>
        <mxCell id="7Wdi4PODXlV2XMZjvd2i-33" value="Prissättning på biljetter" style="ellipse;whiteSpace=wrap;html=1;" vertex="1" parent="7Wdi4PODXlV2XMZjvd2i-28">
          <mxGeometry x="50" y="420" width="140" height="70" as="geometry" />
        </mxCell>
        <mxCell id="7Wdi4PODXlV2XMZjvd2i-34" value="Se statistik" style="ellipse;whiteSpace=wrap;html=1;" vertex="1" parent="7Wdi4PODXlV2XMZjvd2i-28">
          <mxGeometry x="50" y="490" width="140" height="70" as="geometry" />
        </mxCell>
        <mxCell id="7Wdi4PODXlV2XMZjvd2i-10" value="&lt;div&gt;&lt;span style=&quot;background-color: initial;&quot;&gt;Köpa biljett&lt;/span&gt;&lt;/div&gt;" style="ellipse;whiteSpace=wrap;html=1;" vertex="1" parent="7Wdi4PODXlV2XMZjvd2i-28">
          <mxGeometry x="50" width="140" height="70" as="geometry" />
        </mxCell>
        <mxCell id="7Wdi4PODXlV2XMZjvd2i-11" value="Registrera nytt djur" style="ellipse;whiteSpace=wrap;html=1;" vertex="1" parent="7Wdi4PODXlV2XMZjvd2i-28">
          <mxGeometry x="50" y="140" width="140" height="70" as="geometry" />
        </mxCell>
        <mxCell id="7Wdi4PODXlV2XMZjvd2i-12" value="Ändra öppettider" style="ellipse;whiteSpace=wrap;html=1;" vertex="1" parent="7Wdi4PODXlV2XMZjvd2i-28">
          <mxGeometry x="50" y="350" width="140" height="70" as="geometry" />
        </mxCell>
      </root>
    </mxGraphModel>
  </diagram>
</mxfile>
